<?xml version="1.0" encoding="UTF-8"?>
<svg version="1.1" xmlns="http://www.w3.org/2000/svg" width="327" height="327">
<path d="M0 0 C107.91 0 215.82 0 327 0 C327 107.91 327 215.82 327 327 C219.09 327 111.18 327 0 327 C0 219.09 0 111.18 0 0 Z " fill="#000000" transform="translate(0,0)"/>
<path d="M0 0 C1.27491266 0.79498864 2.53962701 1.60651154 3.79492188 2.43212891 C11.09826733 7.22365014 18.75918974 11.47515038 26.35351562 15.78271484 C28.11456653 16.78159749 29.87498533 17.78159539 31.63476562 18.78271484 C32.49457031 19.26740234 33.354375 19.75208984 34.24023438 20.25146484 C36.04268401 21.30760873 37.81538318 22.41563202 39.56054688 23.56396484 C40.43066406 24.13115234 41.30078125 24.69833984 42.19726562 25.28271484 C42.97263672 25.80865234 43.74800781 26.33458984 44.546875 26.87646484 C46.87838929 28.06216226 46.87838929 28.06216226 49.46875 27.03417969 C52.30133967 25.54770808 55.08691423 24.01478477 57.85351562 22.40771484 C59.09685089 21.68869793 60.34035129 20.96996652 61.58398438 20.25146484 C62.26251465 19.85830078 62.94104492 19.46513672 63.64013672 19.06005859 C66.03574252 17.67755147 68.43794959 16.30709002 70.84179688 14.93896484 C71.71191406 14.44332031 72.58203125 13.94767578 73.47851562 13.43701172 C75.27313385 12.41580091 77.06871146 11.39627429 78.86523438 10.37841797 C83.22616691 7.89774258 87.54637231 5.37691057 91.80273438 2.72021484 C92.95745239 2.00841064 92.95745239 2.00841064 94.13549805 1.28222656 C95.57888638 0.38775476 97.01330033 -0.5214197 98.43676758 -1.44726562 C103.16387916 -4.358536 103.16387916 -4.358536 106.44726562 -3.68603516 C107.63835937 -2.95900391 107.63835937 -2.95900391 108.85351562 -2.21728516 C110.24570312 -1.46318359 110.24570312 -1.46318359 111.66601562 -0.69384766 C113.24382812 0.22267578 113.24382812 0.22267578 114.85351562 1.15771484 C116.09946982 1.87800838 117.34557326 2.59804379 118.59179688 3.31787109 C119.27064941 3.71119629 119.94950195 4.10452148 120.64892578 4.50976562 C123.88440325 6.37795826 127.13111504 8.22630047 130.37695312 10.07641602 C138.38359453 14.64105276 146.37678652 19.22850099 154.35351562 23.84521484 C155.13621826 24.29807861 155.9189209 24.75094238 156.7253418 25.2175293 C160.85935351 27.61362992 160.85935351 27.61362992 162.85351562 28.78271484 C164.1298768 29.386623 164.1298768 29.386623 165.43202305 30.00273132 C167.85351562 31.78271484 167.85351562 31.78271484 168.51903439 34.32318115 C168.53780416 35.34591125 168.55657393 36.36864136 168.57591248 37.42236328 C168.60879868 38.59698624 168.64168488 39.77160919 168.67556763 40.98182678 C168.69102127 42.917407 168.69102127 42.917407 168.70678711 44.89208984 C168.73484486 46.2638694 168.76483541 47.63561059 168.7966156 49.00730896 C168.87506482 52.73699756 168.9196325 56.46631336 168.95325351 60.19665146 C168.97458506 62.53005503 169.00102249 64.86335067 169.02879524 67.19668579 C169.11331874 74.50569754 169.17532367 81.81444355 169.20803493 89.1238718 C169.24625578 97.54636314 169.36006374 105.96333914 169.5395388 114.38397789 C169.67363138 120.90142262 169.73787853 127.41730478 169.75046021 133.93610573 C169.75958084 137.82602767 169.79775448 141.71031218 169.90948296 145.59875488 C170.55086862 169.15753206 170.55086862 169.15753206 166.10896683 175.12734985 C161.93093213 178.8595148 157.32012365 181.02912831 152.08893013 182.9165802 C148.66609413 184.24279367 145.76200171 186.12972633 142.66601562 188.09521484 C141.47016497 188.81350945 140.27243606 189.52869274 139.07226562 190.23974609 C135.68089176 192.27339051 132.31296637 194.3435982 128.94726562 196.41943359 C127.91110107 197.05647217 126.87493652 197.69351074 125.80737305 198.34985352 C123.74237269 199.62043779 121.67994954 200.89522194 119.62036133 202.17456055 C118.67249756 202.75681396 117.72463379 203.33906738 116.74804688 203.93896484 C115.90089111 204.46296875 115.05373535 204.98697266 114.1809082 205.52685547 C111.99143487 206.70829372 110.31571347 207.47310289 107.85351562 207.78271484 C105.55788752 206.73217317 103.55208502 205.65840367 101.41601562 204.34521484 C100.80201904 203.98121582 100.18802246 203.6172168 99.55541992 203.2421875 C97.64530863 202.10390511 95.74777447 200.94716169 93.85351562 199.78271484 C93.27794922 199.42902832 92.70238281 199.0753418 92.109375 198.7109375 C89.37208848 197.02443122 86.63939704 195.3306304 83.90820312 193.63427734 C80.38793714 191.50050998 76.79208662 189.56217017 73.15429688 187.63818359 C70.34799087 186.0606743 67.62560755 184.41375148 64.89648438 182.70849609 C63.56145874 181.88140137 63.56145874 181.88140137 62.19946289 181.03759766 C60.40716505 179.92281895 58.62222498 178.79610904 56.84545898 177.65673828 C55.60034546 176.88571777 55.60034546 176.88571777 54.33007812 176.09912109 C53.21753662 175.39444702 53.21753662 175.39444702 52.08251953 174.67553711 C49.23801023 173.53617561 47.74867563 173.89001845 44.85351562 174.78271484 C42.70607036 175.9123456 40.60701811 177.13522888 38.54101562 178.40771484 C37.90856934 178.79451416 37.27612305 179.18131348 36.62451172 179.57983398 C31.42188837 182.77482374 26.25722814 186.03163319 21.08447266 189.2746582 C16.97724191 191.84740791 12.86472353 194.41161357 8.75048828 196.97314453 C6.89502075 198.13214717 5.04280777 199.29638649 3.19482422 200.46728516 C0.86200405 201.94368401 -1.48345983 203.39723112 -3.83398438 204.84521484 C-4.50993652 205.2808374 -5.18588867 205.71645996 -5.88232422 206.1652832 C-10.41526149 208.91380579 -10.41526149 208.91380579 -13.52148438 208.35693359 C-14.38773438 207.83744141 -15.25398438 207.31794922 -16.14648438 206.78271484 C-16.79528564 206.42636963 -17.44408691 206.07002441 -18.11254883 205.70288086 C-20.58171177 204.34639326 -23.02036702 202.94335212 -25.45898438 201.53271484 C-26.36962646 201.00911377 -27.28026855 200.4855127 -28.21850586 199.94604492 C-50.29792349 187.22900385 -50.29792349 187.22900385 -58.09034348 182.51871586 C-61.10516989 180.73601159 -61.10516989 180.73601159 -64.2786293 179.41303921 C-72.48186378 175.56041121 -72.48186378 175.56041121 -74.23117828 170.88142586 C-74.6284629 167.18821871 -74.63175851 163.66573159 -74.50878906 159.95288086 C-74.50540041 158.55285434 -74.5073116 157.15280652 -74.51409912 155.75279236 C-74.5175323 151.96631731 -74.44717933 148.18443604 -74.36321163 144.39902616 C-74.28801061 140.43812679 -74.28113303 136.47711281 -74.26690674 132.51560974 C-74.22966064 125.02081187 -74.13126655 117.52812342 -74.01071286 110.03425306 C-73.87641508 101.50009013 -73.81056439 92.96582447 -73.75036764 84.43086731 C-73.62505505 66.88026448 -73.41409474 49.33171292 -73.14648438 31.78271484 C-72.42686114 31.38033789 -71.70723791 30.97796093 -70.96580791 30.56339073 C-68.26393086 29.05234636 -65.56228809 27.54088417 -62.86079693 26.02915001 C-61.12935746 25.06041195 -59.39765474 24.09214446 -57.66594696 23.12388611 C-50.21963512 18.95649024 -42.81466484 14.73308112 -35.45898438 10.40771484 C-34.46898437 9.83972168 -33.47898438 9.27172852 -32.45898438 8.68652344 C-28.19650233 6.23196505 -24.04206907 3.78655542 -20.09570312 0.84521484 C-12.3495837 -4.76356714 -8.05943049 -4.64185015 0 0 Z " fill="#FBFBFB" transform="translate(116.146484375,64.21728515625)"/>
<path d="M0 0 C0.86310791 0.53753906 1.72621582 1.07507813 2.61547852 1.62890625 C3.57695801 2.20511719 4.5384375 2.78132813 5.52905273 3.375 C6.99689209 4.27412109 6.99689209 4.27412109 8.49438477 5.19140625 C10.33297989 6.20322895 12.17796098 7.20354566 14.02954102 8.19140625 C15.87198893 9.19140625 17.71443685 10.19140625 19.55688477 11.19140625 C20.47276367 11.68640625 21.38864258 12.18140625 22.33227539 12.69140625 C27.59175042 15.55005935 32.76044043 18.51689636 37.87939453 21.61962891 C42.85532361 24.61048236 47.89911403 27.4851099 52.93188477 30.37890625 C54.66731067 31.37825406 56.40273598 32.37760293 58.13804626 33.37715149 C59.85732954 34.3674624 61.57673535 35.35756057 63.29614258 36.34765625 C67.63751308 38.85040663 71.97243369 41.36419896 76.30688477 43.87890625 C83.88866948 48.27630856 91.49539499 52.62921177 99.11669922 56.95776367 C104.96486253 60.2876233 110.71993835 63.7267384 116.49438477 67.19140625 C116.49438477 45.74140625 116.49438477 24.29140625 116.49438477 2.19140625 C125.07992011 6.48417392 133.37133664 10.70549538 141.55688477 15.62890625 C142.4340918 16.15033203 143.31129883 16.67175781 144.21508789 17.20898438 C145.97582864 18.25877969 147.72009886 19.33683058 149.44442749 20.44541931 C152.44938482 22.29728306 152.44938482 22.29728306 155.83938599 23.31336975 C159.95779801 24.98007694 162.99079577 26.43376323 165.49438477 30.19140625 C168.01145816 38.87499509 166.9984856 48.5121353 166.76391602 57.44140625 C166.73241017 60.14277613 166.7205185 62.84413785 166.70817566 65.5456543 C166.66787396 71.91812229 166.56135541 78.28766791 166.43063229 84.65885258 C166.2849845 91.91604286 166.21376665 99.17337784 166.14859164 106.43166733 C166.01294815 121.35320478 165.78451101 136.2720124 165.49438477 151.19140625 C161.23937724 149.54151462 157.32653782 147.51429272 153.36938477 145.25390625 C152.67852783 144.86203125 151.9876709 144.47015625 151.27587891 144.06640625 C149.0125808 142.77957618 146.75293556 141.48654916 144.49438477 140.19140625 C143.71595215 139.74522949 142.93751953 139.29905273 142.13549805 138.83935547 C133.39155785 133.81905681 124.68619025 128.74023768 116.05224609 123.53295898 C109.27430538 119.44659307 102.44722485 115.44468668 95.62084961 111.43994141 C93.57364017 110.23794037 91.52785172 109.03356558 89.48266602 107.828125 C78.21858262 101.19004404 66.92520495 94.60253577 55.62915039 88.01904297 C52.51586062 86.20392714 49.40341417 84.38737422 46.29125977 82.5703125 C44.25481182 81.38149263 42.21835356 80.19269042 40.18188477 79.00390625 C39.17883301 78.41826904 38.17578125 77.83263184 37.14233398 77.22924805 C32.64843842 74.60725743 28.15212601 71.98994831 23.64282227 69.39453125 C13.48322192 63.54581235 3.40755867 57.57086221 -6.61669922 51.49243164 C-12.26864936 48.0783699 -17.96628234 44.80128217 -23.77807617 41.66723633 C-28.42884401 39.15077629 -33.03069996 36.54933542 -37.63061523 33.94140625 C-38.57420898 33.41289063 -39.51780273 32.884375 -40.48999023 32.33984375 C-41.8319043 31.57800781 -41.8319043 31.57800781 -43.20092773 30.80078125 C-44.00546387 30.34670898 -44.81 29.89263672 -45.63891602 29.42480469 C-47.50561523 28.19140625 -47.50561523 28.19140625 -48.50561523 26.19140625 C-37.56187453 19.73816785 -26.5976746 13.3207095 -15.61889648 6.92724609 C-14.63791992 6.35570801 -13.65694336 5.78416992 -12.64624023 5.1953125 C-11.77515625 4.68814697 -10.90407227 4.18098145 -10.0065918 3.65844727 C-7.44847964 2.21592545 -7.44847964 2.21592545 -5.00439453 0.35131836 C-2.50561523 -0.80859375 -2.50561523 -0.80859375 0 0 Z " fill="#000000" transform="translate(108.505615234375,72.80859375)"/>
<path d="M0 0 C3.62479942 1.44991977 6.38541187 2.73473782 9.625 4.75 C14.00817219 7.47265303 18.51374854 9.92978356 23.04736328 12.38964844 C27.7661818 14.96326568 32.44652312 17.60393343 37.125 20.25 C38.12926025 20.8179126 39.13352051 21.3858252 40.16821289 21.97094727 C47.31517229 26.02277126 54.41458332 30.14744029 61.484375 34.33203125 C73.27102096 41.30785613 85.09573444 48.22663278 97 55 C111.40965547 63.20647452 125.78199929 71.49461462 139.85253906 80.27270508 C144.52044739 83.16683127 149.29231579 85.81336769 154.1237793 88.42431641 C158.97284439 91.08078582 163.73269124 93.88775174 168.5 96.6875 C170.60787492 97.92221308 172.71595043 99.15658377 174.82421875 100.390625 C175.86239746 100.99841797 176.90057617 101.60621094 177.97021484 102.23242188 C181.6064184 104.35378478 185.25452667 106.4539195 188.90405273 108.55224609 C195.66466346 112.44071089 202.34963445 116.37881298 208.87109375 120.66015625 C210.86567765 121.91546318 212.87357689 122.98764822 215 124 C212.00465148 127.25108177 208.93414745 129.41609687 205.125 131.64453125 C204.55982666 131.97740646 203.99465332 132.31028168 203.41235352 132.65324402 C201.61153342 133.71207387 199.80591885 134.76239522 198 135.8125 C196.818684 136.50530309 195.63769162 137.19865831 194.45703125 137.89257812 C191.55235242 139.59778021 188.64360152 141.29586857 185.73291016 142.99078369 C183.97111754 144.01682064 182.21006194 145.04411199 180.44921875 146.07177734 C177.63318279 147.71515438 174.81675691 149.3578591 172 151 C167.32955185 148.33989545 162.66329445 145.67262124 158 143 C157.04544922 142.4529541 156.09089844 141.9059082 155.10742188 141.34228516 C120.00265145 121.20479255 120.00265145 121.20479255 103.60180664 110.6171875 C101.14139457 109.08788567 98.65351587 107.69830439 96.09765625 106.3359375 C88.48859703 102.21635474 81.06311734 97.78827952 73.61572266 93.38623047 C71.75509148 92.28727249 69.89319293 91.1904836 68.03125 90.09375 C66.94392578 89.45115234 65.85660156 88.80855469 64.73632812 88.14648438 C59.86954618 85.35056521 54.92739023 82.6876674 50 80 C50 103.43 50 126.86 50 151 C42.14225588 147.07112794 34.56792321 143.12569212 27.0625 138.625 C26.11463623 138.06135742 25.16677246 137.49771484 24.19018555 136.91699219 C17.8681311 133.14845884 11.58920948 129.31584598 5.36328125 125.390625 C2.97931839 123.87723097 2.97931839 123.87723097 0 123 C0 82.41 0 41.82 0 0 Z " fill="#010101" transform="translate(53,109)"/>
<path d="M0 0 C0.78375 0.28875 1.5675 0.5775 2.375 0.875 C2.21 1.473125 2.045 2.07125 1.875 2.6875 C1.2635876 4.98844336 1.2635876 4.98844336 1.375 7.875 C0.0031681 11.99049569 -2.05706628 12.621135 -5.75 14.8125 C-6.3387793 15.16513916 -6.92755859 15.51777832 -7.53417969 15.88110352 C-11.53321188 18.26717802 -15.57636559 20.57463954 -19.625 22.875 C-19.955 23.205 -20.285 23.535 -20.625 23.875 C-19.92004395 24.26768066 -19.21508789 24.66036133 -18.48876953 25.06494141 C-15.2415818 26.87496267 -11.99578565 28.68746577 -8.75 30.5 C-7.64140625 31.11746094 -6.5328125 31.73492187 -5.390625 32.37109375 C1.2701408 36.0932864 7.85469777 39.91250121 14.375 43.875 C15.79370981 44.72749685 17.21295314 45.57910665 18.6328125 46.4296875 C22.21354167 48.578125 25.79427083 50.7265625 29.375 52.875 C27.63529372 56.62327627 26.0047513 58.73014696 22.375 60.875 C16.84339291 59.64943436 12.19081557 56.61479285 7.375 53.75 C5.67598752 52.75225284 3.97676721 51.75485949 2.27734375 50.7578125 C1.44444824 50.26700195 0.61155273 49.77619141 -0.24658203 49.27050781 C-3.50248381 47.36014705 -6.77978986 45.48879938 -10.0625 43.625 C-16.28022013 40.09054632 -22.44536757 36.47978558 -28.625 32.875 C-28.625 73.465 -28.625 114.055 -28.625 155.875 C-27.305 156.205 -25.985 156.535 -24.625 156.875 C-22.84753324 157.84722045 -21.09810439 158.87189597 -19.375 159.9375 C-18.48296875 160.48535156 -17.5909375 161.03320312 -16.671875 161.59765625 C-15.99640625 162.01917969 -15.3209375 162.44070312 -14.625 162.875 C-15.12 163.65875 -15.615 164.4425 -16.125 165.25 C-17.79037965 167.66052327 -17.79037965 167.66052327 -17.625 169.875 C-23.68614145 171.44861475 -28.13941898 170.2478042 -33.44882298 167.30164433 C-36.73424983 164.90454871 -38.33455761 162.89151457 -39.46134567 158.94788742 C-40.71371767 150.11247368 -40.39349556 141.18481553 -40.14590907 132.28852344 C-40.05174011 128.3331145 -40.04329835 124.37751472 -40.02552795 120.42115784 C-39.97901664 112.94001629 -39.85609685 105.46218688 -39.70528561 97.98250014 C-39.53726056 89.4629717 -39.45506339 80.94327972 -39.37985408 72.42250526 C-39.22332031 54.90475834 -38.95971999 37.39022997 -38.625 19.875 C-37.56756592 19.285979 -37.56756592 19.285979 -36.48876953 18.68505859 C-33.2415818 16.87503733 -29.99578565 15.06253423 -26.75 13.25 C-25.64140625 12.63253906 -24.5328125 12.01507813 -23.390625 11.37890625 C-17.39791821 8.03004069 -11.48661495 4.6198885 -5.70507812 0.91601562 C-3.625 -0.125 -3.625 -0.125 0 0 Z " fill="#FCFCFC" transform="translate(81.625,76.125)"/>
<path d="M0 0 C4.73966605 1.57988868 7.62915441 2.83127273 11.6875 5.4375 C18.2294435 9.56686549 24.90079993 13.43072218 31.6394043 17.23022461 C32.420979 17.6763208 33.20255371 18.12241699 34.0078125 18.58203125 C34.70535645 18.97624268 35.40290039 19.3704541 36.12158203 19.77661133 C38.01600818 21.01042591 39.46686773 22.34624058 41 24 C40.30777344 24.40089844 39.61554688 24.80179688 38.90234375 25.21484375 C29.26538997 30.81418053 19.66801436 36.48404217 10.19140625 42.3515625 C9.59062256 42.7235376 8.98983887 43.0955127 8.37084961 43.47875977 C6.71698566 44.50539968 5.06545368 45.5357935 3.4140625 46.56640625 C1 48 1 48 0 48 C0 32.16 0 16.32 0 0 Z " fill="#020202" transform="translate(113,207)"/>
<path d="M0 0 C0 15.18 0 30.36 0 46 C-13.12769784 39.43615108 -13.12769784 39.43615108 -19.06640625 35.7890625 C-23.05866967 33.35436657 -27.09217474 30.99172249 -31.125 28.625 C-31.89674561 28.17157227 -32.66849121 27.71814453 -33.46362305 27.25097656 C-35.30883694 26.16690042 -37.15438314 25.08338994 -39 24 C-38 21 -38 21 -36.19921875 19.81640625 C-35.37035156 19.40261719 -34.54148438 18.98882812 -33.6875 18.5625 C-27.86552744 15.5249491 -22.24639381 12.20611665 -16.625 8.8125 C-15.32308716 8.02758179 -15.32308716 8.02758179 -13.99487305 7.22680664 C-13.16383057 6.72528076 -12.33278809 6.22375488 -11.4765625 5.70703125 C-10.69313477 5.23475098 -9.90970703 4.7624707 -9.10253906 4.27587891 C-7.40101875 3.24334928 -5.7104607 2.19276871 -4.0234375 1.13671875 C-2 0 -2 0 0 0 Z " fill="#010101" transform="translate(215,76)"/>
<path d="M0 0 C-1.44253657 3.36591866 -3.33264727 5.51047079 -6 8 C-6.66 6.68 -7.32 5.36 -8 4 C-2.25 0 -2.25 0 0 0 Z " fill="#F2F2F2" transform="translate(189,79)"/>
<path d="M0 0 C0.66 0.33 1.32 0.66 2 1 C2 2.98 2 4.96 2 7 C-0.475 6.01 -0.475 6.01 -3 5 C-2.01 3.35 -1.02 1.7 0 0 Z " fill="#0A0A0A" transform="translate(213,115)"/>
</svg>
